<?xml version="1.0" encoding="iso-8859-1"?>
<!-- Generator: Adobe Illustrator 19.0.0, SVG Export Plug-In . SVG Version: 6.00 Build 0)  -->
<svg version="1.1" id="Capa_1" xmlns="http://www.w3.org/2000/svg" xmlns:xlink="http://www.w3.org/1999/xlink" x="0px" y="0px"
	 viewBox="0 0 512 512" style="enable-background:new 0 0 512 512;" xml:space="preserve">
<g>
	<g>
		<g>
			<path d="M512,320v-42.667c0-23.531-19.146-42.667-42.667-42.667h-85.499L383.667,224c0-30.118-18.021-55.982-43.768-67.776
				C332.637,92.021,278.285,42.667,213,42.667c-46.376,0-87.992,24.74-110.801,64.75c-2.122-0.142-4.229-0.417-6.366-0.417
				C43,107,0,149.99,0,202.833s43,95.833,95.833,95.833H128V320c0,12.805,5.786,24.174,14.746,32
				c-8.96,7.826-14.746,19.195-14.746,32v42.667c0,23.531,19.146,42.667,42.667,42.667h298.667
				c23.521,0,42.667-19.135,42.667-42.667V384c0-12.805-5.786-24.174-14.746-32C506.214,344.174,512,332.805,512,320z M128,277.333
				H95.833c-41.083,0-74.5-33.417-74.5-74.5c0-41.083,33.417-74.5,74.5-74.5c13.083,0,25.938,3.427,37.167,9.917
				c5.104,2.938,11.646,1.219,14.563-3.906c2.958-5.104,1.208-11.625-3.896-14.573c-6.078-3.508-12.573-6.152-19.244-8.236
				C144.077,81.938,176.859,64,213,64c51.445,0,94.464,36.908,104.126,86.155c-2.704-0.298-5.344-0.822-8.126-0.822
				c-5.896,0-10.667,4.771-10.667,10.667s4.771,10.667,10.667,10.667c29.417,0,53.333,23.927,53.333,53.5l0.164,10.5H170.667
				C147.146,234.667,128,253.802,128,277.333z M490.667,426.667c0,11.76-9.563,21.333-21.333,21.333H170.667
				c-11.771,0-21.333-9.573-21.333-21.333V384c0-11.76,9.563-21.333,21.333-21.333h298.667c11.771,0,21.333,9.573,21.333,21.333
				V426.667z M490.667,320c0,11.76-9.563,21.333-21.333,21.333H170.667c-11.771,0-21.333-9.573-21.333-21.333v-42.667
				c0-11.76,9.563-21.333,21.333-21.333h202.667h0.167h95.833c11.771,0,21.333,9.573,21.333,21.333V320z"/>
			<path d="M181.333,277.333c-5.896,0-10.667,4.771-10.667,10.667v21.333c0,5.896,4.771,10.667,10.667,10.667
				c5.896,0,10.667-4.771,10.667-10.667V288C192,282.104,187.229,277.333,181.333,277.333z"/>
			<path d="M224,277.333c-5.896,0-10.667,4.771-10.667,10.667v21.333c0,5.896,4.771,10.667,10.667,10.667
				s10.667-4.771,10.667-10.667V288C234.667,282.104,229.896,277.333,224,277.333z"/>
			<path d="M266.667,277.333c-5.896,0-10.667,4.771-10.667,10.667v21.333c0,5.896,4.771,10.667,10.667,10.667
				c5.896,0,10.667-4.771,10.667-10.667V288C277.333,282.104,272.563,277.333,266.667,277.333z"/>
			<circle cx="448" cy="298.667" r="21.333"/>
			<circle cx="384" cy="298.667" r="21.333"/>
			<path d="M181.333,384c-5.896,0-10.667,4.771-10.667,10.667V416c0,5.896,4.771,10.667,10.667,10.667
				c5.896,0,10.667-4.771,10.667-10.667v-21.333C192,388.771,187.229,384,181.333,384z"/>
			<path d="M224,384c-5.896,0-10.667,4.771-10.667,10.667V416c0,5.896,4.771,10.667,10.667,10.667s10.667-4.771,10.667-10.667
				v-21.333C234.667,388.771,229.896,384,224,384z"/>
			<path d="M266.667,384c-5.896,0-10.667,4.771-10.667,10.667V416c0,5.896,4.771,10.667,10.667,10.667
				c5.896,0,10.667-4.771,10.667-10.667v-21.333C277.333,388.771,272.563,384,266.667,384z"/>
			<circle cx="448" cy="405.333" r="21.333"/>
			<circle cx="384" cy="405.333" r="21.333"/>
		</g>
	</g>
</g>
<g>
</g>
<g>
</g>
<g>
</g>
<g>
</g>
<g>
</g>
<g>
</g>
<g>
</g>
<g>
</g>
<g>
</g>
<g>
</g>
<g>
</g>
<g>
</g>
<g>
</g>
<g>
</g>
<g>
</g>
</svg>
